<svg version="1.2" xmlns="http://www.w3.org/2000/svg" viewBox="0 0 512 512" width="512" height="512">
	<title>facebook-svg</title>
	<style>
		.s0 { fill: #ffffff } 
	</style>
	<path id="Layer" class="s0" d="m512 256c0-141.4-114.6-256-256-256-141.4 0-256 114.6-256 256 0 120 82.7 220.8 194.2 248.5v-170.3h-52.8v-78.2h52.8v-33.7c0-87.1 39.4-127.5 125-127.5 16.2 0 44.2 3.2 55.7 6.4v70.8c-6-0.6-16.5-1-29.6-1-42 0-58.2 15.9-58.2 57.2v27.8h83.6l-14.4 78.2h-69.3v175.9c126.8-15.3 225-123.2 225-254.1z"/>
</svg>