<svg version="1.2" xmlns="http://www.w3.org/2000/svg" viewBox="0 0 512 512" width="512" height="512">
	<title>java-svgrepo-com-svg</title>
	<style>
		.s0 { fill: #55e8b7 } 
	</style>
	<g id="5151e0c8492e5103c096af88a51e8d81">
		<path id="Layer" fill-rule="evenodd" class="s0" d="m193.9 208.4c-4.7-10.5-6.8-22.7-3.2-33.8 3.6-11.3 11.7-20.4 19.8-28.8 22.5-22.6 50.3-39.1 72.3-62 12.2-12.6 22.3-27.7 25.8-45 2.8-12.7 1.5-25.7-1.2-38.3 11.7 13.3 15.6 32.4 12.2 49.5-3.6 19.3-14.3 36.4-26.9 51.1-10 11.8-21.6 22.3-33.7 32-14 11.3-27.9 23.5-36.7 39.4-7.5 13-9.2 28.9-4.1 43 8.3 24.1 27.7 42 38.3 64.8-11.7-10.3-23.1-21-33.8-32.3-11.2-12-21.8-24.7-28.8-39.6zm95.1-66.1c24.2-17.8 52.4-29.2 81-37.4-22.6 14.5-46.3 27.7-65.8 46.2-7.1 6.9-13.8 14.7-16.9 24.3-2.4 7.1-1.4 14.9 1.5 21.6 5.2 12 14 21.7 20.8 32.7 5.7 9.3 6.7 21.2 2.3 31.3-6.6 14.8-19.5 25.7-33 34.2-1.7 1-3.2 2.9-5.3 3.2 8.9-8.1 15.9-19.6 15.7-31.9-0.3-9.2-5.4-17.3-11.4-23.9-12.3-14.7-22.6-33.4-20.5-53.2 2.1-19.7 16.3-35.7 31.6-47.1zm85.7 143.9c5.2-6.4 13.5-8 21.1-9 13.2-1.7 27.3 1.6 37.2 10.7 8.2 7.3 12.8 18.8 11.1 29.9-1.9 12.8-10.5 23.5-20.2 31.6-17.5 14.1-39.2 22.3-60.8 27.8 1.2-1.4 2.6-2.7 4.2-3.7 16.4-8.8 32.7-19.1 44.8-33.6 7.4-8.9 13.1-20.6 10.7-32.5-2.5-13.6-15.8-23.6-29.4-24.3-6.4-0.7-12.5 1.8-18.7 3.1zm-264.9 26.2c-1.9-1.5-1.9-4.5-0.3-6.2 4.1-4.2 9.9-6.2 15-8.7 22.9-9.8 47.8-16.2 72.8-15.8-14.6 4.2-29.5 7.8-43.2 14.3-3.3 1.7-7 3.4-8.9 6.7-0.9 2.6 1.8 4.4 3.8 5.2 8.4 3.5 17.8 4 26.9 4.9 31.8 2.1 63.8 0.9 95.6-1.1 31.3-2 62.4-6.2 93.4-11.2-6.8 3.2-13.8 6.4-20.1 10.6-3.3 2.2-7.2 2.8-10.9 3.7-38 8.5-77.1 11.1-116 11.7-15 0.1-30-0.1-44.9-1.1-16.7-1.2-33.5-2.4-49.8-6.8-4.7-1.3-9.7-2.8-13.4-6.2zm235.6 53.3c-26.3 7.7-53.3 12.2-80.4 14.3-25.7 1.8-51.7 1.6-77.2-2.5-10.1-1.8-20.4-4-29.6-8.7-3.7-2-8-4.6-9.1-8.9-0.7-3.8 2-7.1 4.7-9.3 6.5-5.1 14.2-7.9 21.9-10.7-2.4 3-5.9 5.9-6.2 10-0.1 2.6 2 4.6 4.1 5.8 4.1 2.2 8.7 2.9 13.3 3.5 23.9 2.5 48.1 3.9 72.2 2.3 22.1-1.1 44-4.8 65.8-8.6 5.9 5.6 13 9.4 20.5 12.8zm-161.8 38.6c3.3 4.3 9.6 4.8 14.5 6 21.1 2.6 42.4 4.3 63.4 2.7 15.9-1 31.6-3.9 47.2-6.6 8.9 5.2 18.3 9.7 27.9 13.7-14.7 6.6-30.5 10.8-46.3 13.8-26.7 4.7-54.2 5.4-80.9 1.1-11.9-2.1-23.9-4.8-34.7-10.7-4.1-2.3-8.4-5.1-10.2-9.7-1.3-3.6 0.9-7.5 3.8-9.7 5.7-4.6 12.8-7 19.8-8.9-2.3 2.1-6.3 4.7-4.5 8.3zm20.7 82.4c-38.9-1.4-77.7-5.1-116.1-11.7-6.8-1.6-14.5-3-19.5-8.4-3.2-3.7-0.4-8.9 2.7-11.7 7.9-7.2 18-11.2 27.8-14.8 11.4-3.8 23.3-6.9 35.3-7.3 4.9-0.1 9.9 0.1 14.1 2.6-14.4 0.9-28.9 4.5-41.8 11.1-2.9 1.6-6.1 3.5-7.2 6.8 0 3.9 4.3 5.1 7.2 6.4 18 6.7 37.3 8.8 56.3 10.8 56.3 4.7 113.1 3.5 169.5-1.6 21.3-2.4 42.7-4.7 63.3-10.6 6.6-2.2 14.1-4.5 18.5-10.3 2.6-3.5 0.8-7.9-1.8-10.9 4.2 2.4 10.2 5.4 9.4 11.1-1.7 6-7.8 9.1-12.7 12-16 8.1-33.5 12.2-51 15.8-50.6 9.9-102.5 12.2-154 10.7zm240.4-22.9c-1.6 10.8-10.9 18.3-20.1 23.1-17.7 9.2-37.5 13.5-57.2 17-41.5 6.6-83.7 8.2-125.9 7.4-28.8-0.8-57.8-2-86-7.9-6.8-1.9-14-3.1-19.8-7.1 25.1 4.2 50.6 5.9 76.1 6.9 42 1.3 84.1-0.3 125.8-5.6 24.1-3.3 48.4-7.4 71.8-14.9 12.6-4.4 26-9 35.3-18.9z"/>
	</g>
</svg>