<svg version="1.2" xmlns="http://www.w3.org/2000/svg" viewBox="0 0 512 512" width="512" height="512">
	<title>js01-svgrepo-com-svg</title>
	<style>
		.s0 { fill: #55e8b7 } 
	</style>
	<g id="5151e0c8492e5103c096af88a51e75c7">
		<path id="Layer" fill-rule="evenodd" class="s0" d="m511.5 0.5q0 255.5 0 510.9c-170.2-0.3-341.6 0.7-511-0.5q0-254.5 0-508.9c0-0.7-0.1-1.4 0.5-1.5q255.3 0 510.5 0zm-233.6 352.1c0-39.1 0-80.7 0-117.5q-23.6 0-47.1 0c-0.6 0.1-0.6 0.7-0.5 1.4 0 41.3 0 94.1 0 139.9 0 22 1.5 42.4-11.7 49.1-20.8 10.5-39.2-6.6-44.7-21.9q-20 11.5-39.3 23.8c13.3 25.4 34.2 43.7 71.9 43.7 22.9 0 41.6-7 53.4-18.9 21-21.2 18-57 18-99.6zm119.5-27.7c-12.1-5.1-27-11.2-30.6-22.3-4.1-12.5 2.9-22.7 10.6-26.2 17.2-7.7 37.6 4.9 41.8 17.9 12.9-7.6 25.7-15.4 37.4-24.3-13.7-22.7-33.8-39-70.4-37.8-20.2 0.6-35.3 7-46.6 16.5-11.1 9.2-19.6 22.3-20.9 40.8-4 55.4 37.5 69.5 72.8 85 11.2 4.8 23.6 9.7 28.7 19.4 10.6 19.9-8.2 33.1-24.3 34.5-25.9 2.2-43.4-12.9-53.4-28.7-12.6 7.8-26.3 14.5-38.4 22.8 16.8 29.6 44.4 48.7 87.4 48.6 44-0.1 76.5-21.3 79.2-61.2 3.6-54.2-37-69.4-73.3-85z"/>
	</g>
</svg>