<svg version="1.2" xmlns="http://www.w3.org/2000/svg" viewBox="0 0 24 24" width="24" height="24">
	<title>nestjs-svgrepo-com-svg</title>
	<style>
		.s0 { fill: #55e8b7 } 
	</style>
	<path id="Layer" class="s0" d="m14.1 0q-0.2 0.1-0.5 0.1c0.4 0.2 0.5 0.5 0.6 0.8q0 0.1 0 0.2 0.1 0 0.1 0 0 0 0 0 0 0 0 0 0 0.1 0 0.1c0 0.5-0.2 0.6-0.3 0.9-0.2 0.4-0.1 0.9 0.1 1.2q0 0 0 0.1 0 0 0 0 0 0 0 0 0.1 0 0.1 0.1c-0.3-1.6 1-1.8 1.3-2.3 0-0.5-0.4-0.7-0.6-0.9q-0.1-0.1-0.2-0.1-0.1-0.1-0.2-0.1-0.1 0-0.2 0-0.1-0.1-0.2-0.1zm2 0.4c0 0.1 0 0.1 0 0.2q0 0.1 0 0.1 0 0.1-0.1 0.2 0 0.1 0 0.1l-0.1 0.2q0 0 0 0.1h-0.1q0 0 0 0 0 0.1 0 0.1 0 0 0 0-0.1 0-0.1 0 0 0.1-0.1 0.1v0.1q0 0-0.1 0.1-0.2 0.1-0.4 0.2-0.1 0.1-0.1 0.1 0 0-0.1 0 0 0 0 0.1 0 0 0 0 0 0-0.1 0 0 0.1-0.1 0.1 0 0.1-0.1 0.2 0 0 0 0 0 0 0 0 0 0 0 0 0 0.1 0 0.1-0.1 0.1-0.1 0.1 0 0.1-0.1 0.2 0 0 0 0 0 0 0 0 0 0.1 0 0.1 0 0 0 0 0 0.1 0 0.1 0 0 0 0.1 0 0.1 0 0.1 0 0.1 0 0.1 0 0.1 0 0.2 0 0.1 0 0.1 0 0.1 0.1 0.2 0 0 0 0.1l-1.4-0.6q-0.4-0.1-0.7-0.2h-0.4q-0.6-0.2-1.1-0.2-0.1 0-0.1 0-0.2 0-0.5-0.1-0.2 0-0.4 0-0.3 0-0.5 0-0.3 0-0.5 0.1-0.6 0-1.1 0.1-0.1 0-0.2 0-0.1 0-0.3 0.1-0.1 0-0.2 0-0.1 0-0.2 0.1h-0.2q-0.2 0.1-0.3 0.2h-0.2q0 0.1-0.1 0.1 0 0-0.1 0-0.1 0.1-0.1 0.1 0 0 0 0-0.1 0-0.1 0 0 0.1-0.1 0.1 0 0-0.1 0 0 0 0 0 0 0 0 0 0 0 0 0.1 0 0 0 0-0.1 0-0.2 0.1 0 0 0 0-0.1 0-0.1 0 0 0 0 0 0 0 0 0-0.1 0.1-0.2 0.1 0 0 0 0-0.1 0.1-0.1 0.1l-0.1 0.1q0 0-0.1 0 0 0.1 0 0.1-0.1 0-0.1 0 0 0.1-0.1 0.2 0 0 0 0 0 0 0 0 0 0-0.1 0 0 0 0 0 0 0.1 0 0.1 0 0 0 0 0 0 0 0-0.1 0-0.1 0 0 0 0 0.1 0 0 0 0 0 0-0.1 0 0 0 0 0 0 0.1 0 0.1 0 0 0 0 0 0-0.1 0 0 0 0 0.1-0.1 0-0.1 0.1-0.2 0.2-0.4 0.3-0.1 0.2-0.3 0.3-0.1 0.1-0.2 0.1-0.1 0.1-0.2 0.1-0.1 0.1-0.2 0.1-0.1 0.1-0.2 0.1-0.2 0.1-0.4 0.2c-0.2 0-0.5 0.1-0.7 0.2q-0.1 0-0.2 0h-0.1l-0.2 0.1q-0.1 0-0.1 0-0.1 0.1-0.2 0.1 0 0 0 0 0 0.1 0 0.1-0.1 0-0.1 0 0 0 0 0-0.1 0.1-0.1 0.1-0.1 0.1-0.1 0.2-0.1 0-0.1 0.1 0 0 0 0-0.1 0.1-0.1 0.1 0 0 0 0 0 0 0 0 0 0.1-0.1 0.2 0 0.1 0 0.2-0.1 0-0.1 0.1 0 0 0 0 0 0.1 0 0.2 0 0.1 0 0.1 0 0.1 0 0.1 0 0.1 0 0.1 0 0 0 0.1 0.1 0 0.1 0 0 0.1 0 0.2 0.1 0 0.1 0.1 0.1 0 0.1 0.1 0 0 0.1 0 0 0 0 0 0 0 0 0 0 0.1 0 0.1c0.2 0.1 0.2 0.1 0.4 0.2q0.1 0.1 0.1 0.1 0 0 0 0 0 0 0 0 0.1 0.1 0.1 0.1 0 0 0 0.1 0 0 0 0.1 0 0 0 0 0.1 0.1 0.1 0.1 0 0.1 0 0.1 0 0 0.1 0.1l0.1 0.1q0 0.1 0.1 0.2 0 0 0.1 0.1 0 0 0 0 0.1 0 0.1 0.1 0 0 0 0 0.1 0 0.1 0 0 0 0 0 0 0 0 0 0.1 0.1 0.2 0.1 0 0 0 0 0 0 0.1 0 0 0 0 0 0 0 0 0 0 0 0 0.1 0.1 0 0.1 0c0 0.3 0 0.6 0 0.7 0.1 0.2 0.4-0.2 0.6-0.7 0 0.5 0 1 0 1.1 0.1 0.2 0.5-0.3 0.8-0.8 4.4-1.1 8.4 2 8.8 6.3 0-0.7-0.9-1.1-1.2-1-0.2 0.5-0.6 1.1-1.1 1.4q0.1-0.6 0-1.2-0.1 0.2-0.1 0.4-0.1 0.2-0.2 0.4-0.1 0.2-0.2 0.4-0.2 0.2-0.3 0.4c-0.6 0-1.2-0.3-1.5-0.7q0 0 0-0.1-0.1-0.1-0.1-0.1 0 0 0-0.1 0 0 0 0 0 0 0 0 0 0 0 0 0-0.1 0-0.2v-0.1q0 0 0 0 0 0 0 0 0-0.1 0-0.1 0 0 0 0 0-0.1 0.1-0.1 0-0.1 0-0.2c0.1-0.3 0.1-0.5-0.1-0.7q0 0 0 0 0 0 0 0 0 0 0 0-0.1 0-0.1 0 0 0-0.1 0v-0.1q0 0 0 0-0.1 0-0.1 0 0 0 0 0 0 0 0 0-0.1 0-0.1 0 0 0 0 0 0 0 0 0 0 0-0.1 0 0 0 0 0 0 0 0 0-0.1 0-0.1 0 0 0 0 0 0 0-0.1 0 0 0 0 0 0 0-0.1 0 0 0 0 0 0 0 0 0-0.1 0-0.2 0 0 0 0 0 0 0 0 0.1 0 0-0.1 0 0 0 0 0-0.1 0-0.1 0-0.1 0.1-0.1 0.1c-1.5 0.9-0.6 3.1 0.4 3.8-0.4 0-0.8 0.1-0.9 0.2q0.4 0.3 0.8 0.4c0.4 0.2 0.9 0.3 1 0.3q0.2 0.1 0.4 0.1 0.2 0 0.4 0 0.2 0.1 0.4 0.1 0.2 0 0.4 0c2.8-0.2 5-2.3 5.4-5.1v0.2q0.1 0.1 0.1 0.3 0 0.1 0 0.2 0 0.1 0 0.2 0 0.1 0.1 0.2v0.1q0 0 0 0.1 0 0 0 0.1v0.1q-0.1 0-0.1 0.1 0 0 0 0.1 0 0.1 0 0.1 0 0.1 0 0.1v0.1q0 0 0 0.1 0 0.1 0 0.2l-0.1 0.1v0.1 0.1q0 0 0 0.1 0 0 0 0 0 0 0 0 0 0.1 0 0.1 0 0 0 0-0.1 0.1-0.1 0.2 0 0 0 0l-0.1 0.2q0 0.1 0 0.2-0.1 0.1-0.1 0.2 0 0.1-0.1 0.2 0 0-0.1 0.1 0 0 0 0 0 0 0 0 0 0.1 0 0.1 0 0 0 0 0 0 0 0-0.1 0.3-0.3 0.6-0.2 0.3-0.4 0.5-0.3 0.3-0.5 0.5-0.3 0.3-0.5 0.5-0.1 0-0.2 0.1 0 0 0 0 0 0-0.1 0 0 0 0 0.1 0 0 0 0 0 0-0.1 0h0.1 0.2q0.3 0 0.5-0.1 0.1 0 0.2 0 0.1-0.1 0.2-0.1 0 0 0.1 0 0.9-0.2 1.8-0.6-0.4 0.5-0.8 1-0.5 0.4-0.9 0.8-0.5 0.4-1.1 0.8-0.5 0.3-1.1 0.6 1.1-0.1 2.1-0.4 1-0.3 1.8-0.7 0.9-0.5 1.6-1.1 0.8-0.6 1.4-1.3 0.6-0.8 1.1-1.6-0.1 0.5-0.2 1.1-0.2 0.5-0.4 1-0.2 0.5-0.5 1-0.3 0.4-0.6 0.9 0.3-0.2 0.5-0.3 0.2-0.2 0.4-0.3 0.2-0.2 0.4-0.4 0.2-0.2 0.4-0.4 0.5-0.5 0.9-1.1 0.5-0.6 0.8-1.3 0.3-0.7 0.6-1.4 0.2-0.7 0.3-1.5 0.3 1.5 0.2 3c4.5-6.2 0.4-12.7-1.4-14.4q0 0 0 0 0 0 0 0 0 0 0 0 0 0.1 0 0.2 0 0.1 0 0.1 0 0.1 0 0.1 0 0.1 0 0.1-0.1 0.1-0.1 0.1 0 0.2-0.1 0.4 0 0.2-0.1 0.4 0 0.1-0.1 0.1 0 0.1 0 0.1 0 0.1-0.1 0.1 0 0.1 0 0.1-0.1 0.1-0.1 0.2-0.1 0.1-0.1 0.2-0.1 0.1-0.2 0.1 0 0.1-0.1 0.2-0.1 0.2-0.3 0.3 0 0 0 0 0 0.1-0.1 0.1 0 0 0 0 0 0-0.1 0.1l-0.1 0.1q0 0-0.1 0.1 0 0-0.1 0 0 0-0.1 0.1 0 0 0 0-0.1 0.1-0.1 0.1-0.1 0-0.1 0-0.1 0.1-0.1 0.1-0.1 0-0.1 0-0.2 0.1-0.4 0.2-0.1 0.1-0.2 0.1-0.1 0-0.2 0-0.1 0.1-0.2 0.1-0.1 0-0.2 0-0.2 0.1-0.4 0.1-0.1 0-0.1 0-0.1 0-0.1 0 0 0-0.1 0 0 0 0 0-0.1 0-0.1 0-0.1 0-0.1 0-0.1 0-0.2 0 0 0-0.1 0 0 0-0.1 0 0 0-0.1 0 0-0.1-0.1-0.1 0 0-0.1 0 0 0-0.1 0 0 0-0.1 0 0 0-0.1-0.1 0 0-0.1 0 0.2 0 0.4 0 0.1-0.1 0.2-0.1 0.1 0 0.2 0 0.1-0.1 0.2-0.1 0.1 0 0.2-0.1 0.2 0 0.4-0.1 0.2-0.1 0.4-0.2 0.2-0.2 0.3-0.3 0.2-0.1 0.4-0.3 0.1-0.1 0.2-0.3 0.2-0.1 0.3-0.3 0 0 0-0.1 0.1-0.1 0.2-0.3 0.1-0.1 0.1-0.2 0.1-0.1 0.1-0.1 0-0.1 0.1-0.2 0-0.1 0.1-0.2 0-0.2 0.1-0.4 0-0.3 0-0.5 0-0.2 0-0.4 0-0.1 0-0.3 0 0 0-0.1 0 0 0-0.1 0 0 0-0.1 0 0 0-0.1 0 0 0-0.1 0-0.1-0.1-0.1 0-0.1 0-0.1 0-0.1 0-0.1-0.1-0.2-0.1-0.4-0.1-0.2-0.2-0.4-0.1-0.2-0.2-0.4-0.1 0-0.1 0 0-0.1-0.1-0.1 0-0.1 0-0.1 0-0.1-0.1-0.1-0.1-0.2-0.3-0.3 0 0 0-0.1 0 0 0 0-0.1 0-0.1 0 0-0.1 0-0.1-0.4-0.3-0.9-0.6 0 0 0 0 0 0 0 0-0.1 0-0.1 0 0 0 0 0-0.1-0.1-0.1-0.1-0.1-0.1-0.2-0.1-0.1 0-0.1 0-0.1-0.1-0.2-0.1z"/>
</svg>