<svg version="1.2" xmlns="http://www.w3.org/2000/svg" viewBox="0 0 48 48" width="48" height="48">
	<title>node-js-svgrepo-com-svg</title>
	<style>
		.s0 { fill: none } 
		.s1 { fill: #55e8b7 } 
	</style>
	<g id="Layer_2">
		<g id="invisible_box">
			<path id="Layer" class="s0" d="m0 0h48v48h-48z"/>
		</g>
		<g id="Q3_icons">
			<g id="Layer">
				<path id="Layer" class="s1" d="m42.3 11.8l-16.6-9.4q-0.4-0.2-0.8-0.3-0.5-0.1-0.9-0.1-0.4 0-0.9 0.1-0.4 0.1-0.8 0.3l-16.6 9.4q-0.4 0.2-0.7 0.5-0.3 0.3-0.5 0.7-0.3 0.4-0.4 0.8-0.1 0.5-0.1 0.9v18.6q0 0.4 0.1 0.9 0.1 0.4 0.4 0.8 0.2 0.4 0.5 0.7 0.3 0.3 0.7 0.5l4.4 2.5q0.4 0.3 0.9 0.4 0.4 0.2 0.9 0.4 0.5 0.1 1 0.2 0.5 0 1 0c3.1 0 4.9-1.9 4.9-5.1v-18.3q0-0.1 0-0.2-0.1-0.1-0.1-0.2-0.1 0-0.2-0.1-0.1 0-0.2 0h-2.1q-0.1 0-0.2 0-0.1 0.1-0.2 0.1 0 0.1-0.1 0.2 0 0.1 0 0.2v18.3c0 1.5-1.5 2.9-3.9 1.7l-4.6-2.6q0 0-0.1-0.1 0 0 0-0.1-0.1 0-0.1-0.1 0 0 0-0.1v-18.6q0-0.1 0-0.1 0-0.1 0.1-0.2 0 0 0-0.1 0.1 0 0.1-0.1l16.5-9.3h0.6l16.5 9.3q0 0.1 0.1 0.1 0 0.1 0 0.1 0.1 0.1 0.1 0.2 0 0 0 0.1v18.6q0 0.1 0 0.1 0 0.1-0.1 0.1 0 0.1 0 0.1-0.1 0.1-0.1 0.1l-16.5 9.3q-0.1 0-0.1 0.1-0.1 0-0.2 0-0.1 0-0.2 0 0-0.1-0.1-0.1l-4.2-2.4q0 0-0.1-0.1 0 0-0.1 0-0.1 0-0.1 0-0.1 0.1-0.1 0.1l-2.5 1.1c-0.3 0.1-0.7 0.2 0.1 0.7l5.6 3.1q0.4 0.2 0.8 0.4 0.4 0.1 0.9 0.1 0.5 0 0.9-0.1 0.4-0.2 0.8-0.4l16.6-9.3q0.4-0.2 0.7-0.5 0.3-0.3 0.5-0.7 0.3-0.4 0.4-0.8 0.1-0.5 0.1-0.9v-18.6q0-0.4-0.1-0.9-0.1-0.4-0.4-0.8-0.2-0.4-0.5-0.7-0.3-0.3-0.7-0.5z"/>
				<path id="Layer" class="s1" d="m29.1 30.3c-4.4 0-5.3-1-5.7-3.1q0-0.1 0-0.2-0.1 0-0.1-0.1-0.1 0-0.1-0.1-0.1 0-0.2 0h-2.2q-0.1 0-0.2 0 0 0.1-0.1 0.1 0 0.1-0.1 0.1 0 0.1 0 0.2c0 2.7 1.5 6 8.7 6 5.2 0 8.2-2 8.2-5.5 0-3.5-2.4-4.5-7.5-5.1-5.1-0.6-5.6-1-5.6-2.2 0-1.2 0.4-2.2 4.2-2.2 3.8 0 4.7 0.7 5.2 2.9q0 0.1 0.1 0.2 0 0 0.1 0.1 0 0 0.1 0.1 0.1 0 0.2 0h2.1l0.4-0.2q0 0 0-0.1 0.1 0 0.1 0 0-0.1 0-0.1 0-0.1 0-0.1c-0.3-3.9-3-5.7-8.3-5.7-5.3 0-7.5 2-7.5 5.2 0 3.2 2.8 4.5 7.3 5 4.5 0.5 5.9 1.2 5.9 2.3 0 1.1-1.5 2.5-5 2.5z"/>
			</g>
		</g>
	</g>
</svg>