<svg version="1.2" xmlns="http://www.w3.org/2000/svg" viewBox="0 0 512 512" width="512" height="512">
	<title>photoshop-svgrepo-com-svg</title>
	<style>
		.s0 { fill: #55e8b7 } 
	</style>
	<g id="2069a460dcf28295e231f3111e037552">
		<path id="Layer" fill-rule="evenodd" class="s0" d="m511.5 85.7v340.6c0 46.9-38.3 85.2-85.2 85.2h-340.6c-46.9 0-85.2-38.3-85.2-85.2v-340.6c0-46.9 38.3-85.2 85.2-85.2h340.6c46.9 0 85.2 38.3 85.2 85.2zm-245.2 119.4c0-22.8-9.4-41.9-23.9-53.9-15.5-13-39.4-19.9-72-19.9-30 0-52.1 2.2-68.1 5.1v240.7h44.2v-92c5.8 1.1 13.4 1.5 21.7 1.5 31.5 0 59.4-8.3 77.1-26.1 13.8-13 21-32.2 21-55.4zm143.4 120.6c-0.4-26.1-15.2-42.4-47.1-54-22.4-7.9-30.8-13.3-30.8-24.6 0-10.8 8.7-18.4 24.6-18.4 15.6 0 29.7 5.8 37.3 10.1l8.7-31.5c-10.1-5.4-27.1-10.5-46.7-10.5-40.9 0-66.6 24.3-66.6 55.4-0.3 20.6 14.1 39.5 48.5 51.4 21.7 7.6 29 13.8 29 25.7 0 11.6-8.7 19.6-28.3 19.6-15.9 0-35.1-6.6-45.2-12.7l-8.7 32.2c13 7.2 32.2 12.3 53.6 12.3 46.7 0 71.7-23.2 71.7-55zm-187.9-118.8c0 28.6-20.3 44.9-53.6 44.9-9 0-16.3-0.3-21.7-1.8v-82.5c4.7-1.1 13.4-2.2 25.7-2.2 30.8 0 49.6 14.5 49.6 41.6z"/>
	</g>
</svg>