<svg version="1.2" xmlns="http://www.w3.org/2000/svg" viewBox="0 0 24 24" width="24" height="24">
	<title>react-svgrepo-com-svg</title>
	<style>
		.s0 { fill: none } 
		.s1 { fill: #55e8b7 } 
	</style>
	<path id="Layer" class="s0" d="m0 0h24v24h-24z"/>
	<path id="Layer" fill-rule="evenodd" class="s1" d="m17.4 2.7c1.4 0.8 1.6 3 1 5.6 2.5 0.8 4.3 2 4.3 3.7 0 1.7-1.8 2.9-4.3 3.7 0.6 2.6 0.4 4.8-1 5.6-1.5 0.9-3.5-0.1-5.4-1.9-1.9 1.8-3.9 2.8-5.4 1.9-1.4-0.8-1.6-3-1-5.6-2.5-0.8-4.3-2-4.3-3.7 0-1.7 1.8-2.9 4.3-3.7-0.6-2.6-0.4-4.8 1-5.6 1.5-0.8 3.5 0.1 5.4 1.9 1.9-1.8 3.9-2.7 5.4-1.9zm-10 17.3c0.6 0.4 2-0.2 3.6-1.7q-0.2-0.2-0.4-0.5-0.2-0.2-0.4-0.4-0.2-0.3-0.4-0.5-0.2-0.3-0.3-0.5-0.3 0-0.6-0.1-0.3 0-0.6-0.1-0.3 0-0.6-0.1-0.3 0-0.6-0.1c-0.5 2.1-0.4 3.6 0.3 4zm0.7-5.7l-0.3-0.6q-0.1 0.2-0.1 0.3 0 0.1-0.1 0.2 0 0.1 0 0.2-0.1 0.1-0.1 0.2 0.4 0.1 0.9 0.2zm6.5-0.8l0.8-1.5-0.8-1.5c-0.3-0.5-0.6-1-0.9-1.5q-0.8 0-1.7 0-0.9 0-1.7 0c-0.3 0.5-0.6 0.9-0.9 1.5l-0.8 1.5 0.8 1.5c0.3 0.5 0.6 1 0.9 1.5q0.8 0 1.7 0 0.9 0 1.7 0c0.3-0.5 0.6-1 0.9-1.5zm-2.6-6.7q-0.3 0.3-0.6 0.7h1.2q-0.3-0.4-0.6-0.7zm0 10.4q0.3-0.3 0.6-0.7h-1.2q0.3 0.4 0.6 0.7zm4.6-13.2c-0.6-0.4-2 0.2-3.6 1.7q0.2 0.2 0.4 0.5 0.2 0.2 0.4 0.4 0.2 0.3 0.4 0.5 0.2 0.3 0.3 0.5 0.3 0 0.6 0.1 0.3 0 0.6 0.1 0.3 0 0.6 0.1 0.3 0 0.6 0.1c0.6-2.2 0.4-3.6-0.3-4zm-0.7 5.7l0.3 0.5q0.1-0.1 0.1-0.2 0-0.1 0.1-0.2 0-0.2 0-0.3 0.1-0.1 0.1-0.2-0.4-0.1-0.9-0.1zm-3.9 0.4c0.8 0 1.4 0.4 1.7 1.1 0.3 0.7 0.2 1.5-0.4 2.1-0.5 0.5-1.3 0.7-2 0.4-0.7-0.3-1.2-1-1.2-1.7q0-0.4 0.2-0.8 0.1-0.3 0.4-0.6 0.2-0.2 0.6-0.4 0.3-0.1 0.7-0.1zm5.1 1.9q0.1 0.2 0.2 0.5 0.2 0.3 0.3 0.6 0.1 0.3 0.2 0.5 0.1 0.3 0.2 0.6c2.1-0.6 3.3-1.5 3.3-2.2 0-0.8-1.2-1.7-3.3-2.3q-0.1 0.3-0.2 0.6-0.1 0.3-0.2 0.5-0.1 0.3-0.3 0.6-0.1 0.3-0.2 0.6zm-10.2 0q-0.1-0.3-0.2-0.6-0.2-0.3-0.3-0.6-0.1-0.2-0.2-0.5-0.1-0.3-0.2-0.6c-2.1 0.6-3.3 1.5-3.3 2.3 0 0.7 1.2 1.6 3.3 2.2q0.1-0.3 0.2-0.6 0.1-0.2 0.2-0.5 0.1-0.3 0.3-0.6 0.1-0.3 0.2-0.5zm9 2.2l-0.3 0.5c0.3 0 0.6-0.1 0.9-0.1q0-0.1-0.1-0.2 0-0.2 0-0.3-0.1-0.1-0.1-0.2 0-0.1-0.1-0.2zm-2.9 4.1c1.6 1.5 3 2 3.6 1.7 0.6-0.4 0.8-1.9 0.3-4q-0.3 0-0.6 0.1-0.3 0-0.6 0.1-0.3 0-0.6 0-0.3 0.1-0.6 0.1-0.2 0.3-0.4 0.5-0.1 0.3-0.3 0.5-0.2 0.2-0.4 0.5-0.2 0.2-0.4 0.5zm-4.9-8.6l0.3-0.5c-0.3 0-0.6 0.1-0.9 0.1q0 0.1 0.1 0.3 0 0.1 0 0.2 0.1 0.1 0.1 0.2 0 0.1 0.1 0.2zm2.9-4c-1.6-1.5-3-2.1-3.6-1.7-0.7 0.3-0.8 1.8-0.3 4q0.3-0.1 0.6-0.2 0.3 0 0.6-0.1 0.3 0 0.6 0 0.3-0.1 0.6-0.1 0.1-0.3 0.3-0.5 0.2-0.2 0.4-0.5 0.2-0.2 0.4-0.5 0.2-0.2 0.4-0.4z"/>
</svg>