<svg version="1.2" xmlns="http://www.w3.org/2000/svg" viewBox="0 0 24 24" width="24" height="24">
	<title>sass-svgrepo-com-svg</title>
	<style>
		.s0 { fill: none } 
		.s1 { fill: #55e8b7 } 
	</style>
	<path id="Layer" class="s0" d="m0 0h24v24h-24z"/>
	<path id="Layer" fill-rule="evenodd" class="s1" d="m12 2c4 0 7.7 2.4 9.2 6.2 1.6 3.7 0.7 8-2.1 10.9-2.9 2.8-7.2 3.7-10.9 2.1-3.8-1.5-6.2-5.2-6.2-9.2 0-1.3 0.3-2.6 0.8-3.8 0.5-1.2 1.2-2.3 2.1-3.3 1-0.9 2.1-1.6 3.3-2.1 1.2-0.5 2.5-0.8 3.8-0.8zm6.3 4.3c-0.5-1.8-3.4-2.3-6.2-1.3q-0.7 0.2-1.3 0.4-0.6 0.3-1.2 0.7-0.6 0.3-1.2 0.7-0.5 0.4-1.1 0.8c-1.5 1.5-1.7 2.7-1.6 3.2 0.3 1.9 2.8 3.1 3.9 4-0.3 0.1-2.6 1.3-3.1 2.4q-0.2 0.3-0.2 0.6-0.1 0.3 0 0.6 0.1 0.4 0.2 0.6 0.2 0.3 0.5 0.5 0.5 0.1 1 0 0.5 0 0.9-0.2 0.5-0.2 0.9-0.5 0.3-0.3 0.6-0.7 0.2-0.4 0.4-0.7 0.1-0.4 0.1-0.8 0.1-0.4 0-0.8 0-0.4-0.1-0.8 0.1 0 0.3-0.1 0.2 0 0.4 0 0.2 0 0.4 0 0.2 0 0.4 0c1.7 0.2 2.1 1.3 2 1.8q0 0.1-0.1 0.2 0 0.1-0.1 0.2-0.1 0.1-0.2 0.2-0.1 0.1-0.2 0.2c-0.1 0-0.1 0.1-0.1 0.1q0 0.1 0.2 0.1 0.2-0.1 0.3-0.2 0.2-0.1 0.3-0.3 0.2-0.1 0.3-0.3 0-0.2 0.1-0.4c0-1.1-1-2.3-2.9-2.3q-0.2 0-0.4 0-0.2 0-0.3 0.1-0.2 0-0.4 0-0.2 0.1-0.4 0.1l-0.1-0.1c-1.1-1.2-3.2-2-3.1-3.6 0-0.6 0.2-2.2 4-4 3.1-1.6 5.5-1.1 6-0.2 0.6 1.3-1.3 3.8-4.5 4.2q-0.3 0-0.6 0-0.2 0-0.5 0-0.3-0.1-0.5-0.2-0.2-0.2-0.4-0.3c-0.2-0.2-0.2-0.2-0.3-0.2-0.1 0 0 0.2 0 0.3q0.1 0.2 0.2 0.3 0.2 0.2 0.3 0.3 0.1 0.1 0.3 0.2 0.2 0.1 0.4 0.1 0.4 0.2 0.9 0.2 0.5 0 1 0 0.4-0.1 0.9-0.2 0.5-0.1 0.9-0.3c1.9-0.8 3.4-2.9 3-4.6zm-8.3 9q0.1 0.2 0.1 0.4 0 0.1 0 0.3 0 0.2 0 0.4 0 0.2-0.1 0.4c0 0 0 0.1-0.1 0.1 0 0.1 0 0.1 0 0.2q-0.1 0.1-0.1 0.2-0.1 0-0.1 0.1-0.1 0.1-0.2 0.2 0 0.1-0.1 0.1c-0.6 0.7-1.4 0.9-1.7 0.7-0.4-0.2-0.2-1.1 0.5-1.8q0.2-0.2 0.4-0.4 0.2-0.2 0.4-0.3 0.2-0.2 0.4-0.3 0.3-0.1 0.5-0.3z"/>
</svg>